<svg data-v-423bf9ae="" xmlns="http://www.w3.org/2000/svg" viewBox="0 0 279.55308369797615 60" class="font"><!----><!----><!----><g data-v-423bf9ae="" id="51a64827-da54-4f02-b496-98e84e3853ae" fill="black" transform="matrix(4.788507683852314,0,0,4.788507683852314,-2.0111725521533117,-17.813249436186652)"><path d="M4.30 8.50L4.30 8.50L4.30 8.50Q4.19 8.23 3.99 8.07L3.99 8.07L3.99 8.07Q3.79 7.91 3.56 7.83L3.56 7.83L3.56 7.83Q3.33 7.74 3.12 7.74L3.12 7.74L3.12 7.74Q2.90 7.73 2.76 7.78L2.76 7.78L2.76 7.78Q2.51 7.87 2.43 8.07L2.43 8.07L2.43 8.07Q2.35 8.27 2.51 8.46L2.51 8.46L2.51 8.46Q2.63 8.60 2.91 8.73L2.91 8.73L2.91 8.73Q3.18 8.86 3.51 9.02L3.51 9.02L3.51 9.02Q3.85 9.18 4.21 9.39L4.21 9.39L4.21 9.39Q4.56 9.59 4.86 9.87L4.86 9.87L4.86 9.87Q5.15 10.15 5.34 10.53L5.34 10.53L5.34 10.53Q5.53 10.91 5.53 11.42L5.53 11.42L5.53 11.42Q5.53 12.03 5.26 12.48L5.26 12.48L5.26 12.48Q5.00 12.94 4.56 13.22L4.56 13.22L4.56 13.22Q4.12 13.50 3.56 13.60L3.56 13.60L3.56 13.60Q3.01 13.71 2.44 13.62L2.44 13.62L2.44 13.62Q1.88 13.54 1.34 13.24L1.34 13.24L1.34 13.24Q0.81 12.94 0.42 12.42L0.42 12.42L1.54 11.21L1.54 11.21Q1.89 11.63 2.27 11.82L2.27 11.82L2.27 11.82Q2.66 12.00 2.99 12.02L2.99 12.02L2.99 12.02Q3.32 12.04 3.54 11.92L3.54 11.92L3.54 11.92Q3.77 11.80 3.81 11.60L3.81 11.60L3.81 11.60Q3.86 11.40 3.70 11.15L3.70 11.15L3.70 11.15Q3.53 10.91 3.05 10.67L3.05 10.67L3.05 10.67Q2.60 10.44 2.18 10.21L2.18 10.21L2.18 10.21Q1.75 9.97 1.42 9.67L1.42 9.67L1.42 9.67Q1.09 9.38 0.89 9.02L0.89 9.02L0.89 9.02Q0.69 8.65 0.69 8.16L0.69 8.16L0.69 8.16Q0.69 7.66 0.90 7.27L0.90 7.27L0.90 7.27Q1.11 6.87 1.46 6.61L1.46 6.61L1.46 6.61Q1.81 6.34 2.25 6.22L2.25 6.22L2.25 6.22Q2.70 6.09 3.18 6.10L3.18 6.10L3.18 6.10Q3.99 6.15 4.42 6.46L4.42 6.46L4.42 6.46Q4.84 6.78 4.95 7.18L4.95 7.18L4.95 7.18Q5.05 7.57 4.88 7.95L4.88 7.95L4.88 7.95Q4.70 8.33 4.30 8.50ZM8.46 6.27L8.46 7.11L8.46 7.11Q8.57 6.86 8.80 6.68L8.80 6.68L8.80 6.68Q9.03 6.50 9.31 6.37L9.31 6.37L9.31 6.37Q9.59 6.24 9.88 6.17L9.88 6.17L9.88 6.17Q10.18 6.10 10.43 6.09L10.43 6.09L10.43 6.09Q10.96 6.06 11.48 6.24L11.48 6.24L11.48 6.24Q12.00 6.41 12.43 6.85L12.43 6.85L12.43 6.85Q13.06 7.50 13.06 8.74L13.06 8.74L13.06 13.52L11.27 13.52L11.27 13.52Q11.27 13.29 11.28 12.88L11.28 12.88L11.28 12.88Q11.28 12.47 11.28 11.99L11.28 11.99L11.28 11.99Q11.28 11.51 11.28 10.99L11.28 10.99L11.28 10.99Q11.28 10.47 11.27 10.01L11.27 10.01L11.27 10.01Q11.26 9.55 11.23 9.18L11.23 9.18L11.23 9.18Q11.20 8.82 11.16 8.65L11.16 8.65L11.16 8.65Q11.05 8.20 10.73 7.98L10.73 7.98L10.73 7.98Q10.42 7.76 10.05 7.76L10.05 7.76L10.05 7.76Q9.58 7.76 9.31 8.02L9.31 8.02L9.31 8.02Q9.04 8.27 9.04 8.69L9.04 8.69L9.04 8.69Q8.88 8.64 8.71 8.46L8.71 8.46L8.71 8.46Q8.54 8.29 8.46 8.09L8.46 8.09L8.46 8.47L8.46 13.52L6.65 13.52L6.65 6.27L8.46 6.27ZM19.87 13.52L19.87 12.73L19.87 12.73Q19.33 13.24 18.71 13.48L18.71 13.48L18.71 13.48Q18.09 13.72 17.46 13.70L17.46 13.70L17.46 13.70Q16.83 13.68 16.23 13.41L16.23 13.41L16.23 13.41Q15.64 13.15 15.18 12.65L15.18 12.65L15.18 12.65Q14.73 12.15 14.46 11.46L14.46 11.46L14.46 11.46Q14.18 10.77 14.18 9.88L14.18 9.88L14.18 9.88Q14.18 9.04 14.48 8.33L14.48 8.33L14.48 8.33Q14.77 7.62 15.27 7.11L15.27 7.11L15.27 7.11Q15.76 6.61 16.40 6.34L16.40 6.34L16.40 6.34Q17.04 6.06 17.72 6.09L17.72 6.09L17.72 6.09Q18.40 6.12 18.80 6.39L18.80 6.39L18.80 6.39Q19.21 6.66 19.40 7.03L19.40 7.03L19.40 7.03Q19.59 7.39 19.59 7.76L19.59 7.76L19.59 7.76Q19.60 8.13 19.47 8.36L19.47 8.36L19.47 8.36Q19.24 8.01 18.80 7.89L18.80 7.89L18.80 7.89Q18.37 7.77 17.96 7.77L17.96 7.77L17.96 7.77Q17.32 7.77 16.88 8.09L16.88 8.09L16.88 8.09Q16.45 8.40 16.23 8.88L16.23 8.88L16.23 8.88Q16.00 9.35 16.00 9.91L16.00 9.91L16.00 9.91Q15.99 10.46 16.21 10.93L16.21 10.93L16.21 10.93Q16.42 11.41 16.86 11.73L16.86 11.73L16.86 11.73Q17.30 12.04 17.96 12.04L17.96 12.04L17.96 12.04Q18.52 12.04 18.89 11.79L18.89 11.79L18.89 11.79Q19.25 11.54 19.47 11.14L19.47 11.14L19.47 11.14Q19.68 10.74 19.77 10.24L19.77 10.24L19.77 10.24Q19.87 9.74 19.87 9.25L19.87 9.25L19.87 7.04L19.87 6.27L21.69 6.27L21.69 13.52L19.87 13.52ZM24.89 6.29L24.89 7.07L24.89 7.07Q25.41 6.55 26.03 6.31L26.03 6.31L26.03 6.31Q26.66 6.08 27.29 6.10L27.29 6.10L27.29 6.10Q27.92 6.13 28.50 6.40L28.50 6.40L28.50 6.40Q29.09 6.66 29.54 7.15L29.54 7.15L29.54 7.15Q29.99 7.64 30.26 8.34L30.26 8.34L30.26 8.34Q30.53 9.03 30.53 9.90L30.53 9.90L30.53 9.90Q30.53 10.74 30.24 11.44L30.24 11.44L30.24 11.44Q29.95 12.14 29.46 12.64L29.46 12.64L29.46 12.64Q28.97 13.15 28.33 13.42L28.33 13.42L28.33 13.42Q27.69 13.69 27.02 13.66L27.02 13.66L27.02 13.66Q26.32 13.64 25.91 13.36L25.91 13.36L25.91 13.36Q25.51 13.09 25.33 12.73L25.33 12.73L25.33 12.73Q25.14 12.38 25.14 12.01L25.14 12.01L25.14 12.01Q25.14 11.63 25.27 11.41L25.27 11.41L25.27 11.41Q25.40 11.58 25.57 11.70L25.57 11.70L25.57 11.70Q25.75 11.82 25.95 11.88L25.95 11.88L25.95 11.88Q26.15 11.94 26.37 11.97L26.37 11.97L26.37 11.97Q26.59 12.00 26.78 12.00L26.78 12.00L26.78 12.00Q27.43 12.00 27.86 11.68L27.86 11.68L27.86 11.68Q28.29 11.37 28.51 10.90L28.51 10.90L28.51 10.90Q28.73 10.43 28.73 9.88L28.73 9.88L28.73 9.88Q28.73 9.32 28.52 8.86L28.52 8.86L28.52 8.86Q28.31 8.39 27.87 8.07L27.87 8.07L27.87 8.07Q27.44 7.76 26.78 7.76L26.78 7.76L26.78 7.76Q26.24 7.76 25.87 8.01L25.87 8.01L25.87 8.01Q25.51 8.26 25.29 8.66L25.29 8.66L25.29 8.66Q25.07 9.06 24.98 9.55L24.98 9.55L24.98 9.55Q24.89 10.04 24.89 10.53L24.89 10.53L24.89 16.25L23.09 16.25L23.09 7.74L23.09 7.74Q23.09 7.38 23.23 7.10L23.23 7.10L23.23 7.10Q23.38 6.82 23.63 6.63L23.63 6.63L23.63 6.63Q23.88 6.44 24.21 6.36L24.21 6.36L24.21 6.36Q24.53 6.27 24.89 6.29L24.89 6.29ZM35.25 8.50L35.25 8.50L35.25 8.50Q35.14 8.23 34.94 8.07L34.94 8.07L34.94 8.07Q34.75 7.91 34.52 7.83L34.52 7.83L34.52 7.83Q34.29 7.74 34.07 7.74L34.07 7.74L34.07 7.74Q33.85 7.73 33.71 7.78L33.71 7.78L33.71 7.78Q33.46 7.87 33.38 8.07L33.38 8.07L33.38 8.07Q33.31 8.27 33.46 8.46L33.46 8.46L33.46 8.46Q33.59 8.60 33.86 8.73L33.86 8.73L33.86 8.73Q34.13 8.86 34.47 9.02L34.47 9.02L34.47 9.02Q34.80 9.18 35.16 9.39L35.16 9.39L35.16 9.39Q35.52 9.59 35.81 9.87L35.81 9.87L35.81 9.87Q36.11 10.15 36.30 10.53L36.30 10.53L36.30 10.53Q36.48 10.91 36.48 11.42L36.48 11.42L36.48 11.42Q36.48 12.03 36.22 12.48L36.22 12.48L36.22 12.48Q35.95 12.94 35.51 13.22L35.51 13.22L35.51 13.22Q35.07 13.50 34.52 13.60L34.52 13.60L34.52 13.60Q33.96 13.71 33.40 13.62L33.40 13.62L33.40 13.62Q32.83 13.54 32.30 13.24L32.30 13.24L32.30 13.24Q31.77 12.94 31.37 12.42L31.37 12.42L32.49 11.21L32.49 11.21Q32.84 11.63 33.23 11.82L33.23 11.82L33.23 11.82Q33.61 12.00 33.94 12.02L33.94 12.02L33.94 12.02Q34.27 12.04 34.50 11.92L34.50 11.92L34.50 11.92Q34.72 11.80 34.77 11.60L34.77 11.60L34.77 11.60Q34.82 11.40 34.65 11.15L34.65 11.15L34.65 11.15Q34.48 10.91 34.01 10.67L34.01 10.67L34.01 10.67Q33.56 10.44 33.13 10.21L33.13 10.21L33.13 10.21Q32.70 9.97 32.38 9.67L32.38 9.67L32.38 9.67Q32.05 9.38 31.84 9.02L31.84 9.02L31.84 9.02Q31.64 8.65 31.64 8.16L31.64 8.16L31.64 8.16Q31.64 7.66 31.85 7.27L31.85 7.27L31.85 7.27Q32.06 6.87 32.41 6.61L32.41 6.61L32.41 6.61Q32.76 6.34 33.21 6.22L33.21 6.22L33.21 6.22Q33.66 6.09 34.13 6.10L34.13 6.10L34.13 6.10Q34.94 6.15 35.37 6.46L35.37 6.46L35.37 6.46Q35.80 6.78 35.90 7.18L35.90 7.18L35.90 7.18Q36.01 7.57 35.83 7.95L35.83 7.95L35.83 7.95Q35.66 8.33 35.25 8.50ZM39.41 6.29L39.41 7.07L39.41 7.07Q39.93 6.55 40.55 6.31L40.55 6.31L40.55 6.31Q41.17 6.08 41.80 6.10L41.80 6.10L41.80 6.10Q42.43 6.13 43.02 6.40L43.02 6.40L43.02 6.40Q43.61 6.66 44.06 7.15L44.06 7.15L44.06 7.15Q44.51 7.64 44.78 8.34L44.78 8.34L44.78 8.34Q45.05 9.03 45.05 9.90L45.05 9.90L45.05 9.90Q45.05 10.74 44.76 11.44L44.76 11.44L44.76 11.44Q44.46 12.14 43.97 12.64L43.97 12.64L43.97 12.64Q43.48 13.15 42.85 13.42L42.85 13.42L42.85 13.42Q42.21 13.69 41.54 13.66L41.54 13.66L41.54 13.66Q40.84 13.64 40.43 13.36L40.43 13.36L40.43 13.36Q40.03 13.09 39.84 12.73L39.84 12.73L39.84 12.73Q39.66 12.38 39.66 12.01L39.66 12.01L39.66 12.01Q39.66 11.63 39.79 11.41L39.79 11.41L39.79 11.41Q39.91 11.58 40.09 11.70L40.09 11.70L40.09 11.70Q40.26 11.82 40.47 11.88L40.47 11.88L40.47 11.88Q40.67 11.94 40.89 11.97L40.89 11.97L40.89 11.97Q41.10 12.00 41.30 12.00L41.30 12.00L41.30 12.00Q41.94 12.00 42.38 11.68L42.38 11.68L42.38 11.68Q42.81 11.37 43.03 10.90L43.03 10.90L43.03 10.90Q43.25 10.43 43.25 9.88L43.25 9.88L43.25 9.88Q43.25 9.32 43.04 8.86L43.04 8.86L43.04 8.86Q42.83 8.39 42.39 8.07L42.39 8.07L42.39 8.07Q41.96 7.76 41.30 7.76L41.30 7.76L41.30 7.76Q40.75 7.76 40.39 8.01L40.39 8.01L40.39 8.01Q40.03 8.26 39.81 8.66L39.81 8.66L39.81 8.66Q39.59 9.06 39.50 9.55L39.50 9.55L39.50 9.55Q39.41 10.04 39.41 10.53L39.41 10.53L39.41 16.25L37.60 16.25L37.60 7.74L37.60 7.74Q37.60 7.38 37.75 7.10L37.75 7.10L37.75 7.10Q37.90 6.82 38.15 6.63L38.15 6.63L38.15 6.63Q38.40 6.44 38.72 6.36L38.72 6.36L38.72 6.36Q39.05 6.27 39.41 6.29L39.41 6.29ZM49.69 6.10L49.69 6.10L49.69 6.10Q50.79 6.10 51.65 6.64L51.65 6.64L51.65 6.64Q52.51 7.17 53.00 7.99L53.00 7.99L53.00 7.99Q53.49 8.82 53.53 9.83L53.53 9.83L53.53 9.83Q53.56 10.84 53.02 11.80L53.02 11.80L53.02 11.80Q52.56 12.60 51.81 13.08L51.81 13.08L51.81 13.08Q51.07 13.55 50.23 13.67L50.23 13.67L50.23 13.67Q49.39 13.79 48.55 13.53L48.55 13.53L48.55 13.53Q47.70 13.27 47.03 12.60L47.03 12.60L47.03 12.60Q46.27 11.83 46.02 10.82L46.02 10.82L46.02 10.82Q45.77 9.81 46.06 8.81L46.06 8.81L46.06 8.81Q46.19 8.40 46.47 8.13L46.47 8.13L46.47 8.13Q46.76 7.87 47.12 7.74L47.12 7.74L47.12 7.74Q47.49 7.62 47.88 7.63L47.88 7.63L47.88 7.63Q48.27 7.64 48.61 7.79L48.61 7.79L48.61 7.79Q48.94 7.94 49.18 8.21L49.18 8.21L49.18 8.21Q49.41 8.48 49.45 8.88L49.45 8.88L49.45 8.88Q49.24 8.72 48.94 8.71L48.94 8.71L48.94 8.71Q48.65 8.71 48.38 8.84L48.38 8.84L48.38 8.84Q48.10 8.97 47.91 9.25L47.91 9.25L47.91 9.25Q47.73 9.52 47.73 9.93L47.73 9.93L47.73 9.93Q47.73 10.63 48.02 11.09L48.02 11.09L48.02 11.09Q48.31 11.55 48.76 11.78L48.76 11.78L48.76 11.78Q49.20 12.01 49.71 12.01L49.71 12.01L49.71 12.01Q50.22 12.01 50.66 11.77L50.66 11.77L50.66 11.77Q51.10 11.54 51.39 11.07L51.39 11.07L51.39 11.07Q51.69 10.60 51.69 9.90L51.69 9.90L51.69 9.90Q51.69 9.35 51.49 8.93L51.49 8.93L51.49 8.93Q51.30 8.51 50.97 8.24L50.97 8.24L50.97 8.24Q50.64 7.97 50.20 7.86L50.20 7.86L50.20 7.86Q49.77 7.76 49.28 7.85L49.28 7.85L49.28 7.85Q49.07 7.60 48.77 7.46L48.77 7.46L48.77 7.46Q48.47 7.31 48.12 7.26L48.12 7.26L48.12 7.26Q47.77 7.21 47.42 7.27L47.42 7.27L47.42 7.27Q47.07 7.34 46.76 7.52L46.76 7.52L46.76 7.52Q47.32 6.85 48.06 6.48L48.06 6.48L48.06 6.48Q48.80 6.10 49.69 6.10ZM55.41 6.33L55.41 5.15L55.41 5.15Q55.41 4.76 55.56 4.49L55.56 4.49L55.56 4.49Q55.71 4.21 55.95 4.05L55.95 4.05L55.95 4.05Q56.20 3.88 56.52 3.80L56.52 3.80L56.52 3.80Q56.84 3.72 57.18 3.72L57.18 3.72L57.18 6.33L58.80 6.33L58.80 6.33Q58.80 6.61 58.75 6.87L58.75 6.87L58.75 6.87Q58.70 7.14 58.56 7.36L58.56 7.36L58.56 7.36Q58.42 7.57 58.18 7.71L58.18 7.71L58.18 7.71Q57.95 7.84 57.57 7.84L57.57 7.84L57.18 7.84L57.18 11.80L57.18 11.80Q57.18 12.03 57.34 12.12L57.34 12.12L57.34 12.12Q57.51 12.21 57.74 12.20L57.74 12.20L57.74 12.20Q57.96 12.19 58.18 12.10L58.18 12.10L58.18 12.10Q58.41 12.00 58.51 11.83L58.51 11.83L58.51 11.83Q58.69 12.29 58.53 12.65L58.53 12.65L58.53 12.65Q58.37 13.01 58.02 13.22L58.02 13.22L58.02 13.22Q57.68 13.44 57.23 13.50L57.23 13.50L57.23 13.50Q56.77 13.57 56.37 13.43L56.37 13.43L56.37 13.43Q55.97 13.30 55.69 12.96L55.69 12.96L55.69 12.96Q55.41 12.61 55.41 12.03L55.41 12.03L55.41 7.84L54.52 7.84L54.52 6.33L55.41 6.33Z"></path></g><!----><!----></svg>